<svg width="274" height="43" viewBox="0 0 274 43" fill="none" xmlns="http://www.w3.org/2000/svg">
<path d="M83.0781 29.3438V33H66.6875V29.3438H83.0781ZM68.0781 29.3438V38.5781H63.6719L63.4219 29.3438H68.0781ZM86.4531 29.3438L86.0469 38.5938H81.75V29.3438H86.4531ZM80.5 10.25V13.9219H69.5469V10.25H80.5ZM83.8438 10.25V33H79.1719V10.25H83.8438ZM68.9688 10.25H73.6562L73.0469 19.5156C72.9531 21.0469 72.7865 22.401 72.5469 23.5781C72.3177 24.7448 72.0365 25.7708 71.7031 26.6562C71.3802 27.5417 71.0208 28.3177 70.625 28.9844C70.2292 29.6406 69.8125 30.2135 69.375 30.7031C68.9375 31.1823 68.4948 31.6094 68.0469 31.9844C67.599 32.349 67.1615 32.6875 66.7344 33H64.0469V29.3438H65.0938C65.3958 29.0938 65.7135 28.75 66.0469 28.3125C66.3906 27.875 66.7135 27.2865 67.0156 26.5469C67.3281 25.7969 67.599 24.849 67.8281 23.7031C68.0677 22.5573 68.2448 21.1615 68.3594 19.5156L68.9688 10.25Z" fill="black"/>
<path d="M96.0156 24.75L101.609 10.25H106.656L98.8594 28.5938C98.5885 29.2188 98.276 29.8177 97.9219 30.3906C97.5781 30.9531 97.1667 31.4583 96.6875 31.9062C96.2083 32.3438 95.6354 32.6927 94.9688 32.9531C94.3021 33.2031 93.5052 33.3281 92.5781 33.3281C92.349 33.3281 92.0677 33.3229 91.7344 33.3125C91.401 33.3021 91.1354 33.2865 90.9375 33.2656L90.9062 29.6094C91.0312 29.6406 91.2292 29.6615 91.5 29.6719C91.7708 29.6719 91.9688 29.6719 92.0938 29.6719C92.7083 29.6719 93.1927 29.5833 93.5469 29.4062C93.901 29.2292 94.1823 28.9792 94.3906 28.6562C94.6094 28.3229 94.8021 27.9323 94.9688 27.4844L96.0156 24.75ZM92.3125 10.25L97.5 21.5156L98.9531 26.6875L95.4688 26.75L87.2812 10.25H92.3125Z" fill="black"/>
<path d="M125.859 29.3438V33H109.469V29.3438H125.859ZM110.859 29.3438V38.5781H106.453L106.203 29.3438H110.859ZM129.234 29.3438L128.828 38.5938H124.531V29.3438H129.234ZM123.281 10.25V13.9219H112.328V10.25H123.281ZM126.625 10.25V33H121.953V10.25H126.625ZM111.75 10.25H116.438L115.828 19.5156C115.734 21.0469 115.568 22.401 115.328 23.5781C115.099 24.7448 114.818 25.7708 114.484 26.6562C114.161 27.5417 113.802 28.3177 113.406 28.9844C113.01 29.6406 112.594 30.2135 112.156 30.7031C111.719 31.1823 111.276 31.6094 110.828 31.9844C110.38 32.349 109.943 32.6875 109.516 33H106.828V29.3438H107.875C108.177 29.0938 108.495 28.75 108.828 28.3125C109.172 27.875 109.495 27.2865 109.797 26.5469C110.109 25.7969 110.38 24.849 110.609 23.7031C110.849 22.5573 111.026 21.1615 111.141 19.5156L111.75 10.25Z" fill="black"/>
<path d="M138.797 24.75L144.391 10.25H149.438L141.641 28.5938C141.37 29.2188 141.057 29.8177 140.703 30.3906C140.359 30.9531 139.948 31.4583 139.469 31.9062C138.99 32.3438 138.417 32.6927 137.75 32.9531C137.083 33.2031 136.286 33.3281 135.359 33.3281C135.13 33.3281 134.849 33.3229 134.516 33.3125C134.182 33.3021 133.917 33.2865 133.719 33.2656L133.688 29.6094C133.812 29.6406 134.01 29.6615 134.281 29.6719C134.552 29.6719 134.75 29.6719 134.875 29.6719C135.49 29.6719 135.974 29.5833 136.328 29.4062C136.682 29.2292 136.964 28.9792 137.172 28.6562C137.391 28.3229 137.583 27.9323 137.75 27.4844L138.797 24.75ZM135.094 10.25L140.281 21.5156L141.734 26.6875L138.25 26.75L130.062 10.25H135.094Z" fill="black"/>
<path d="M178.375 10.25V33H173.688V13.9219H164.547V33H159.859V10.25H178.375Z" fill="black"/>
<path d="M186.984 25.625L196.125 10.25H200.812V33H196.125V17.625L186.984 33H182.297V10.25H186.984V25.625Z" fill="black"/>
<path d="M226.281 29.3594L225.984 38.4844H221.609V33H219.75V29.3594H226.281ZM204.641 33V10.25H209.312V29.3438H218.469V10.25H223.172V33H204.641Z" fill="black"/>
<path d="M250.562 29.3594L250.266 38.4844H245.891V33H244.031V29.3594H250.562ZM228.922 33V10.25H233.594V29.3438H242.75V10.25H247.453V33H228.922Z" fill="black"/>
<path d="M262.969 14.1406L256.781 33H251.797L260.25 10.25H263.422L262.969 14.1406ZM268.109 33L261.906 14.1406L261.406 10.25H264.609L273.109 33H268.109ZM267.828 24.5312V28.2031H255.812V24.5312H267.828Z" fill="black"/>
<path d="M43 21.5C43 33.3741 33.3741 43 21.5 43C9.62588 43 0 33.3741 0 21.5C0 9.62588 9.62588 0 21.5 0C33.3741 0 43 9.62588 43 21.5Z" fill="#FF820F"/>
</svg>
