<svg width="20" height="20" viewBox="0 0 20 20" fill="none" xmlns="http://www.w3.org/2000/svg">
<path d="M19.7479 18.5593L14.0096 12.8169C15.1409 11.4602 15.8213 9.72641 15.8213 7.83277C15.8213 3.51266 12.2758 0 7.91475 0C3.55364 0 0 3.51675 0 7.83687C0 12.157 3.54545 15.6696 7.90655 15.6696C9.7592 15.6696 11.4643 15.0343 12.8169 13.9727L18.5757 19.7315C18.9118 20.0676 19.4118 20.0676 19.7479 19.7315C20.084 19.3954 20.084 18.8954 19.7479 18.5593ZM1.6805 7.83687C1.6805 4.44308 4.47587 1.6846 7.90655 1.6846C11.3372 1.6846 14.1326 4.44308 14.1326 7.83687C14.1326 11.2307 11.3372 13.9891 7.90655 13.9891C4.47587 13.9891 1.6805 11.2266 1.6805 7.83687Z" fill="#FF820F"/>
</svg>
